<?xml version="1.0" encoding="UTF-8" standalone="no"?>
<!-- #ffffff used to be #333333 -->
<svg
   xmlns:dc="http://purl.org/dc/elements/1.1/"
   xmlns:cc="http://creativecommons.org/ns#"
   xmlns:rdf="http://www.w3.org/1999/02/22-rdf-syntax-ns#"
   xmlns:svg="http://www.w3.org/2000/svg"
   xmlns="http://www.w3.org/2000/svg"
   viewBox="0 0 666.66669 400"
   height="400"
   width="666.66669"
   xml:space="preserve"
   id="svg2"
   version="1.1"><metadata
     id="metadata8"><rdf:RDF><cc:Work
         rdf:about=""><dc:format>image/svg+xml</dc:format><dc:type
           rdf:resource="http://purl.org/dc/dcmitype/StillImage" /></cc:Work></rdf:RDF></metadata><defs
     id="defs6"><clipPath
       id="clipPath18"
       clipPathUnits="userSpaceOnUse"><path
         id="path16"
         d="M 0,300 H 500 V 0 H 0 Z" /></clipPath></defs><g
     transform="matrix(1.3333333,0,0,-1.3333333,0,400)"
     id="g10"><g
       id="g12"><g
         clip-path="url(#clipPath18)"
         id="g14"><g
           transform="translate(408,74.9502)"
           id="g20"><path
             id="path22"
             style="fill:#ffffff;fill-opacity:1;fill-rule:evenodd;stroke:none"
             d="m 0,0 c 1.066,-1.967 1.6,-4.15 1.6,-6.55 0,-2.4 -0.534,-4.567 -1.6,-6.5 -0.667,-1.2 -1.517,-2.301 -2.55,-3.301 -2.667,-2.733 -5.917,-4.099 -9.75,-4.099 -3.867,0 -7.183,1.366 -9.95,4.099 -2.667,2.667 -4,5.934 -4,9.801 0,3.866 1.333,7.166 4,9.9 2.767,2.667 6.083,4 9.95,4 3.833,0 7.083,-1.333 9.75,-4 C -1.517,2.316 -0.667,1.2 0,0" /></g><g
           transform="translate(312,141.9004)"
           id="g24"><path
             id="path26"
             style="fill:none;stroke:#ffffff;stroke-width:5;stroke-linecap:round;stroke-linejoin:miter;stroke-miterlimit:3;stroke-dasharray:none;stroke-opacity:1"
             d="M 0,0 72.25,72.35 M -113.4,-89.851 c 0.433,0.434 0.833,0.884 1.2,1.351 3.933,4.733 3.533,9.517 -1.2,14.35 l -7.25,-7.35 c -2.067,-2.101 -4.183,-2.101 -6.35,0 l -8.35,8.449 m 75.25,84.601 -91.15,91.2 c -5.3,5.266 -10.583,5.266 -15.85,0 L -177.65,92.149 -236,33.8 c -2.067,-2.067 -2.067,-4.133 0,-6.2 l 100.65,-100.651 c 2,-1.866 4,-1.8 6,0.2 l 7.25,7.351 m 107.55,50.899 -8.35,8.25 M 9.05,-38.2 l -23.6,23.599 -45.75,-45.75 m 8.55,63.55 -8.35,8.351 c 4.9,-5.2 4.784,-10.351 -0.35,-15.45 L -71,-14.5 l -51.1,-51 8.7,-8.65 61.65,61.549 c 5.267,5.267 5.267,10.534 0,15.8 z M 24.05,-23.25 12.6,-12.601 0,0 -8.35,8.35 m 80.6,64 23.7,-23.6 -8.2,-8.25 -7.9,-7.9 -7.9,-7.9 -7.8,-7.9 -7.9,-7.8 -7.9,-7.9 -7.8,-7.901 -7.9,-7.8 -8.6,-8.649 -7.65,-7.65 -7.35,-7.3 -7.9,-7.901 -7.95,-7.899 -7.75,-7.9 -7.9,-7.8 -7.95,-7.901 -6.2,-6.349 -23.7,23.599 L -68.55,-52 -22.9,-6.351 -69,39.7 -73.55,44.399 -81.7,60.3 -89.6,75.35 -77.25,69.2 -61,61 l 6.15,-6.15 46.5,-46.5 72.4,72.35 z" /></g><g
           transform="translate(306,102.9004)"
           id="g28"><path
             id="path30"
             style="fill:none;stroke:#ffffff;stroke-width:3;stroke-linecap:round;stroke-linejoin:miter;stroke-miterlimit:3;stroke-dasharray:none;stroke-opacity:1"
             d="M 0,0 7.15,-7.101 M -27.5,-19.7 l 11.05,-11 m -15.05,-0.8 7.1,-7.101 m 8.7,22.8 7.15,-7.099 M -11.8,-4 -0.8,-15 M -171.65,131.149 -65,24.5 m 8.625,62.425 C -59.104,86.796 -60.979,86.221 -62,85.2 c -0.367,-0.4 -0.667,-0.85 -0.9,-1.35 -0.433,-0.734 -0.683,-1.55 -0.75,-2.451 0,-1.033 0.217,-1.933 0.65,-2.699 m 6.65,8.3 c -0.007,-0.026 -0.016,-0.052 -0.025,-0.075 0.034,-0.002 0.067,-0.002 0.1,0 m 7.425,6.925 c -0.534,0.233 -1.167,0.35 -1.9,0.35 -1.267,-0.067 -2.417,-0.484 -3.45,-1.25 -0.067,-0.067 -0.184,-0.167 -0.35,-0.301 -1.033,-1.033 -1.55,-2.299 -1.55,-3.799 0,-0.484 -0.083,-1.1 -0.25,-1.85 L -56.275,86.925 22.4,8.1 m -98.1,91.2 4.45,8.9 M 51.2,59 62.25,48 M 47.2,47.2 54.35,40.1 m -18.85,3.099 11.05,-11 M 31.5,31.5 38.65,24.399 M 63,62.899 70.15,55.8 m -3.25,18.9 11.05,-11 m 4.75,26.8 11.05,-11 M 78.7,78.7 85.85,71.6" /></g></g></g></g></svg>
